<mxfile host="app.diagrams.net" modified="2024-07-08T04:08:17.447Z" agent="Mozilla/5.0 (Windows NT 10.0; Win64; x64) AppleWebKit/537.36 (KHTML, like Gecko) Chrome/126.0.0.0 Safari/537.36" version="24.4.14" etag="Sd_Ok1VlGZ3Rq8C9qQBO" type="github">
  <diagram name="Page-1" id="hj30Rn3nyQbZf5_6bAoN">
    <mxGraphModel>
      <root>
        <mxCell id="0" />
        <mxCell id="1" parent="0" />
      </root>
    </mxGraphModel>
  </diagram>
</mxfile>
